<svg version="1.1" xmlns="http://www.w3.org/2000/svg" xmlns:xlink="http://www.w3.org/1999/xlink" x="0px" y="0px" width="119px" height="24px" viewBox="0 0 119 24">
    <g id="logo" viewBox="0 0 119 24" fill="none">
        <path d="M0 21.885H21.063V0.820999H0V21.885Z" fill="#312783"/>
        <path
              d="M34.5365 19.231C37.6423 19.231 38.6781 17.874 38.5245 14.7172C37.6037 15.1591 35.9173 15.2479 34.4979 15.5427C33.0415 15.8081 31.8134 16.2804 31.8134 17.4904C31.8134 18.7291 33.0801 19.231 34.5365 19.231ZM26.0996 11.2951C26.2138 9.28839 27.4418 7.98971 29.2054 7.19457C30.9698 6.42735 33.2707 6.13246 35.5337 6.13246C40.2512 6.13246 44.815 6.92843 44.815 11.2656V17.9619C44.815 19.2597 44.815 20.6767 45.5814 21.885H39.0239C38.7939 21.4135 38.7167 20.942 38.6403 20.4401C36.9523 21.7971 34.4584 22.3286 32.082 22.3286C28.2846 22.3286 25.2929 20.8533 25.2929 17.6965C25.2929 12.7113 32.3507 13.0941 36.8759 12.386C37.9873 12.2094 38.6017 11.9145 38.6017 10.9699C38.6017 9.81985 36.7995 9.3771 35.4573 9.3771C33.6551 9.3771 32.5034 9.99728 32.1962 11.2951H26.0996Z"
              fill="#312783"/>
        <path d="M47.157 21.886H53.677V0.821991H47.157V21.886Z" fill="#312783"/>
        <path
              d="M61.6541 14.0682C61.6541 16.162 62.6514 18.4932 65.6422 18.4932C68.8252 18.4932 69.516 16.162 69.516 14.2152C69.516 12.0023 68.4802 9.96762 65.6422 9.96762C62.6514 9.96762 61.6541 12.1206 61.6541 14.0682ZM75.8049 21.8857H69.5924V20.1147H69.516C68.2502 21.5613 66.333 22.3285 64.033 22.3285C57.7803 22.3285 55.1345 18.1975 55.1345 13.8908C55.1345 9.9093 57.8961 6.13237 63.5336 6.13237C65.988 6.13237 67.8666 6.83962 69.2096 8.22702H69.2869V0.821838H75.8049V21.8857ZM91.7213 12.6516C91.6055 10.9405 90.0333 9.52438 87.8474 9.52438C85.5466 9.52438 84.013 10.7935 83.6278 12.6516H91.7213ZM83.6278 15.4543C83.7444 17.5489 85.3158 18.9347 88.0774 18.9347C89.6505 18.9347 91.1849 18.3753 91.7985 17.254H97.8968C96.7057 20.7936 92.4499 22.328 88.0019 22.328C81.5192 22.328 77.1097 19.3191 77.1097 14.1852C77.1097 9.49481 81.9792 6.13188 87.8474 6.13188C94.9807 6.13188 98.5482 10.2628 98.2402 15.4543H83.6278ZM105.608 16.8405C105.608 17.6077 106.03 18.1679 106.682 18.5524C107.296 18.9064 108.178 19.0822 109.098 19.0822C110.362 19.0822 112.166 18.6698 112.166 17.4599C112.166 16.2803 110.133 16.0437 108.983 15.8376C104.879 15.0416 99.7394 14.9521 99.7394 10.8236C99.7394 7.13534 104.917 6.13237 108.829 6.13237C113.201 6.13237 117.766 7.10495 117.995 11.0881H111.975C111.975 10.4391 111.667 10.0259 111.131 9.76062C110.594 9.4953 109.865 9.37702 109.06 9.37702C107.986 9.37702 106.261 9.46573 106.261 10.527C106.261 11.9736 110.632 12.2389 113.623 12.7408C117.649 13.3601 118.686 15.6018 118.686 16.8701C118.686 20.9707 113.623 22.3285 109.136 22.3285C104.419 22.3285 99.5866 21.1185 99.3961 16.8405H105.608Z"
              fill="#312783"/>
        <path
              d="M12.4678 5.68699C12.4678 4.46142 13.7114 3.98499 15.1884 3.71556C16.6259 3.41574 18.3353 3.3262 19.2676 2.87852C19.4237 6.07635 18.3739 7.45142 15.2262 7.45142C13.7509 7.45142 12.4678 6.94295 12.4678 5.68699Z"
              fill="#C7D200"/>
    </g>
</svg>