<svg version="1.1" xmlns="http://www.w3.org/2000/svg" xmlns:xlink="http://www.w3.org/1999/xlink" x="0px" y="0px" width="284px" height="284px" viewBox="0 0 284 284">
    <g id="icon" viewBox="0 0 284 284" fill="none">
        <path d="M283.46 0H0V283.46H283.46V0Z" fill="#27348B"/>
        <path d="M13.42 242.59C13.74 236.95 17.2 233.29 22.17 231.04C27.14 228.79 33.62 228.04 39.99 228.04C53.28 228.04 66.13 230.29 66.13 242.5V261.36C66.13 265.02 66.13 269.01 68.29 272.41H49.82C49.2457 271.119 48.8811 269.745 48.74 268.34C44 272.18 37 273.67 30.27 273.67C19.57 273.67 11.15 269.52 11.15 260.67C11.15 246.67 31.02 247.67 43.77 245.67C46.9 245.17 48.63 244.34 48.63 241.67C48.63 238.43 43.55 237.18 39.77 237.18C34.7 237.18 31.45 238.93 30.59 242.58L13.42 242.59ZM37.18 265C45.93 265 48.85 261.17 48.41 252.28C45.82 253.53 41.07 253.78 37.07 254.61C33.07 255.44 29.51 256.69 29.51 260.09C29.51 263.49 33.08 265 37.18 265Z"
              fill="white"/>
        <path d="M72.73 213.1H91.09V272.42H72.73V213.1Z" fill="white"/>
        <path d="M153.42 272.42H135.92V267.42H135.7C132.14 271.49 126.7 273.65 120.26 273.65C102.65 273.65 95.2 262.02 95.2 249.89C95.2 238.67 102.97 228.03 118.85 228.03C125.77 228.03 131.06 230.03 134.85 233.93H135.07V213.1H153.43L153.42 272.42ZM113.56 250.42C113.56 256.31 116.37 262.88 124.79 262.88C133.79 262.88 135.7 256.31 135.7 250.83C135.7 244.6 132.79 238.83 124.79 238.83C116.37 238.86 113.56 244.92 113.56 250.41V250.42Z"
              fill="white"/>
        <path d="M175.45 254.31C175.78 260.21 180.21 264.12 187.98 264.12C192.41 264.12 196.73 262.54 198.46 259.38H215.64C212.29 269.38 200.3 273.67 187.77 273.67C169.51 273.67 157.09 265.2 157.09 250.74C157.09 237.53 170.81 228.05 187.34 228.05C207.43 228.05 217.47 239.69 216.61 254.31H175.45ZM198.25 246.42C197.92 241.6 193.49 237.61 187.34 237.61C180.85 237.61 176.53 241.18 175.45 246.42H198.25Z"
              fill="white"/>
        <path d="M237.36 258.22C237.371 259.221 237.657 260.2 238.186 261.05C238.715 261.9 239.467 262.588 240.36 263.04C242.471 264.094 244.812 264.606 247.17 264.53C250.73 264.53 255.81 263.37 255.81 259.96C255.81 256.55 250.08 255.96 246.81 255.39C235.26 253.15 220.81 252.9 220.81 241.27C220.81 230.88 235.39 228.05 246.41 228.05C258.73 228.05 271.58 230.8 272.23 242.05H255.23C255.263 241.258 255.052 240.475 254.627 239.807C254.201 239.138 253.581 238.616 252.85 238.31C251.01 237.526 249.019 237.157 247.02 237.23C244.02 237.23 239.14 237.48 239.14 240.47C239.14 244.55 251.45 245.29 259.87 246.71C271.22 248.45 274.13 254.77 274.13 258.34C274.13 269.89 259.87 273.71 247.24 273.71C233.95 273.71 220.34 270.3 219.8 258.26L237.36 258.22Z"
              fill="white"/>
        <path
              d="M219.84 36C219.84 26.93 229.05 23.4 239.98 21.4C250.62 19.19 263.27 18.52 270.17 15.21C271.33 38.88 263.56 49.06 240.26 49.06C229.33 49.06 219.84 45.3 219.84 36V36Z"
              fill="#C8D400"/>
    </g>
</svg>
